<svg xmlns="http://www.w3.org/2000/svg" viewBox="0 0 400 400">
  <defs>
    <linearGradient id="bg" x1="0" y1="0" x2="1" y2="1">
      <stop offset="0" stop-color="#f2f4f9"/>
      <stop offset="1" stop-color="#e7eaf2"/>
    </linearGradient>
  </defs>
  <rect width="400" height="400" fill="url(#bg)"/>
  <g fill="none" stroke="#c2cad9" stroke-width="14" stroke-linecap="round" stroke-linejoin="round">
    <path d="M120 190v110a10 10 0 0 0 10 10h140a10 10 0 0 0 10-10V190"/>
    <path d="M104 148l16-44a12 12 0 0 1 11-8h138a12 12 0 0 1 11 8l16 44"/>
    <path d="M104 148h192v18a26 26 0 0 1-52 0 26 26 0 0 1-52 0 26 26 0 0 1-52 0 26 26 0 0 1-36-24z" fill="#d8deea" stroke="none"/>
    <path d="M176 310v-70a8 8 0 0 1 8-8h32a8 8 0 0 1 8 8v70"/>
  </g>
</svg>
